<svg width="1269" height="501" viewBox="0 0 1269 501" fill="none" xmlns="http://www.w3.org/2000/svg">
<path d="M607.816 248C596.312 248 589.531 240.977 589.531 228.867V92.2734C589.531 80.2852 596.312 73.2617 607.816 73.2617H656.254C708.688 73.2617 739.566 104.504 739.566 159.965C739.566 215.426 708.688 248 656.254 248H607.816ZM626.102 217.727H651.895C684.59 217.727 702.27 197.867 702.27 160.086C702.27 123.516 684.105 103.414 651.895 103.414H626.102V217.727ZM790.372 250.059C765.669 250.059 746.9 234.074 746.9 210.703C746.9 187.09 765.064 173.406 797.517 171.469L830.212 169.531V160.934C830.212 148.824 821.736 141.801 808.415 141.801C797.638 141.801 791.099 145.312 783.228 155.484C779.353 159.844 774.872 162.023 769.181 162.023C760.583 162.023 754.408 156.453 754.408 148.461C754.408 145.676 755.013 143.133 756.224 140.469C762.279 124.969 783.107 115.402 809.99 115.402C843.29 115.402 864.966 132.598 864.966 158.754V232.742C864.966 244.488 857.822 250.543 847.771 250.543C838.205 250.543 831.544 245.215 830.818 234.801V228.141H830.091C822.826 241.945 806.599 250.059 790.372 250.059ZM801.997 224.508C817.497 224.508 830.212 214.457 830.212 200.41V190.965L802.845 192.66C789.646 193.629 782.138 199.562 782.138 208.766C782.138 218.453 790.13 224.508 801.997 224.508ZM898.698 102.082C888.042 102.082 879.807 93.9688 879.807 83.7969C879.807 73.5039 888.042 65.5117 898.698 65.5117C909.354 65.5117 917.589 73.5039 917.589 83.7969C917.589 93.9688 909.354 102.082 898.698 102.082ZM898.698 250.543C887.679 250.543 881.018 243.641 881.018 232.137V134.051C881.018 122.547 887.679 115.523 898.698 115.523C909.597 115.523 916.378 122.547 916.378 134.051V232.137C916.378 243.641 909.597 250.543 898.698 250.543ZM985.469 250.785C955.68 250.785 935.821 240.129 929.645 224.871C928.797 222.57 928.313 220.27 928.313 218.332C928.313 210.219 934.367 204.77 942.602 204.77C948.293 204.77 953.137 207.312 957.981 212.762C964.883 221.844 972.875 225.961 986.317 225.961C999.153 225.961 1007.51 220.633 1007.51 212.035C1007.51 205.012 1003.03 201.258 990.313 198.473L968.516 193.871C943.086 188.422 930.25 175.465 930.25 156.211C930.25 131.387 951.684 115.402 985.348 115.402C1012.23 115.402 1031.97 127.633 1036.21 142.285C1036.69 144.102 1037.05 145.797 1037.05 147.492C1037.05 154.637 1032.57 159.602 1023.49 159.602C1018.89 159.602 1013.8 157.906 1010.66 154.152C1004.48 146.281 997.457 140.227 984.742 140.227C972.754 140.227 964.399 145.918 964.399 154.273C964.399 161.055 969.485 165.535 982.442 168.32L1003.88 172.922C1031.48 178.734 1042.87 188.906 1042.87 208.281C1042.87 234.074 1019.74 250.785 985.469 250.785ZM1112.56 250.785C1073.33 250.785 1048.26 225.598 1048.26 182.973C1048.26 140.953 1073.69 115.402 1112.56 115.402C1151.44 115.402 1176.86 140.832 1176.86 182.973C1176.86 225.719 1151.8 250.785 1112.56 250.785ZM1112.56 223.781C1129.88 223.781 1140.9 209.129 1140.9 183.094C1140.9 157.301 1129.76 142.406 1112.56 142.406C1095.37 142.406 1084.11 157.301 1084.11 183.094C1084.11 209.129 1095.13 223.781 1112.56 223.781ZM607.816 450.301C596.312 450.301 589.531 443.277 589.531 431.289V292.273C589.531 280.285 596.312 273.262 607.816 273.262H689.555C699.605 273.262 706.145 278.953 706.145 288.398C706.145 297.844 699.484 303.535 689.555 303.535H626.102V350.277H683.621C693.066 350.277 699.242 355.727 699.242 364.688C699.242 373.77 693.188 379.219 683.621 379.219H626.102V431.289C626.102 443.277 619.32 450.301 607.816 450.301ZM733.458 302.082C722.802 302.082 714.568 293.969 714.568 283.797C714.568 273.504 722.802 265.512 733.458 265.512C744.115 265.512 752.349 273.504 752.349 283.797C752.349 293.969 744.115 302.082 733.458 302.082ZM733.458 450.543C722.439 450.543 715.779 443.641 715.779 432.137V334.051C715.779 322.547 722.439 315.523 733.458 315.523C744.357 315.523 751.138 322.547 751.138 334.051V432.137C751.138 443.641 744.357 450.543 733.458 450.543ZM784.991 450.543C774.698 450.543 767.311 444.246 767.311 432.137V333.324C767.311 322.305 773.729 315.523 784.386 315.523C795.042 315.523 802.065 322.305 802.065 333.445V340.711H802.792C809.694 324.605 822.772 315.766 842.753 315.766C871.573 315.766 887.8 333.93 887.8 364.324V432.137C887.8 444.246 880.413 450.543 870.12 450.543C859.706 450.543 852.44 444.246 852.44 432.137V371.711C852.44 354.758 844.448 345.07 828.585 345.07C812.722 345.07 802.671 356.695 802.671 373.527V432.137C802.671 444.246 795.405 450.543 784.991 450.543ZM950.957 450.059C918.504 450.059 898.039 424.387 898.039 382.852C898.039 341.68 918.625 316.129 951.2 316.129C969.969 316.129 984.5 326.059 990.797 340.469H991.524V289.125C991.524 277.016 998.91 270.598 1009.2 270.598C1019.62 270.598 1026.88 277.016 1026.88 289.125V432.621C1026.88 444.367 1019.62 450.543 1009.32 450.543C999.153 450.543 991.524 444.488 991.524 432.621V425.113H990.918C985.227 439.645 970.938 450.059 950.957 450.059ZM962.946 421.602C980.504 421.602 991.766 406.828 991.766 383.094C991.766 359.48 980.504 344.465 962.946 344.465C945.145 344.465 934.246 359.359 934.246 383.094C934.246 406.949 945.145 421.602 962.946 421.602ZM1102.76 450.785C1062.19 450.785 1038.33 425.719 1038.33 383.699C1038.33 341.922 1062.67 315.402 1101.06 315.402C1137.87 315.402 1162.58 340.59 1162.58 375.828C1162.58 385.637 1157.01 391.207 1147.2 391.207H1073.09V392.781C1073.09 412.035 1084.71 424.629 1102.63 424.629C1115.59 424.629 1124.07 420.27 1133.63 409.008C1137.39 405.133 1140.54 403.801 1145.14 403.801C1152.77 403.801 1158.94 408.645 1158.94 416.758C1158.94 419.543 1158.1 422.449 1156.52 425.355C1147.92 441.34 1127.82 450.785 1102.76 450.785ZM1073.45 369.531H1128.55C1127.82 352.578 1116.92 341.559 1101.42 341.559C1085.92 341.559 1074.66 352.941 1073.45 369.531ZM1191.1 450.543C1180.44 450.543 1173.42 443.883 1173.42 432.137V333.324C1173.42 322.062 1180.32 315.523 1190.5 315.523C1200.42 315.523 1207.21 322.062 1207.21 333.324V341.801H1207.93C1211.32 325.695 1221.98 316.129 1234.94 316.129C1239.66 316.129 1243.41 317.219 1245.96 319.398C1249.35 322.062 1251.04 326.422 1251.04 332.477C1251.04 338.047 1249.35 342.285 1245.96 345.191C1242.57 348.098 1237.48 349.672 1230.58 349.793C1214.47 350.035 1208.78 359.117 1208.78 374.496V432.137C1208.78 443.883 1201.88 450.543 1191.1 450.543Z" fill="#111111"/>
<rect width="500" height="500" rx="120" fill="#ED1C24"/>
<path d="M221 60C309.918 60 382 132.082 382 221C382 309.918 309.918 382.001 221 382.001C132.082 382.001 60 309.918 60 221C60.0002 132.082 132.082 60 221 60ZM219.288 131.937C171.045 131.937 131.938 171.045 131.938 219.288C131.938 267.531 171.045 306.64 219.288 306.64C267.531 306.64 306.64 267.531 306.64 219.288C306.64 171.045 267.531 131.937 219.288 131.937Z" fill="white"/>
<rect x="250" y="314.033" width="75" height="196.605" rx="20" transform="rotate(-45 250 314.033)" fill="white"/>
<circle cx="156.5" cy="220.5" r="18.5" fill="white"/>
</svg>
